# xmcd
#
# Track frame offsets:
#	150
#	18036
#	29937
#	61477
#	82118
#	108938
#	121258
#	134469
#	155499
#	180307
#	200789
#	219390
#	238126
#	255606
#	273909
#	295696
#	314436
#	331503
#
# Disc length: 4728 seconds
#
# Revision: 0
# Processed by: cddbd v1.5.2PL0 Copyright (c) Steve Scherf et al.
# Submitted via: audiograbber 1.83.01
#
DISCID=04127612
DTITLE=Varios - MiMusica
DYEAR=1900
DGENRE=
TTITLE0=Mentiroso
TTITLE1=Tengo
TTITLE2=La balada del diablo y la muerte.
TTITLE3=Matador
TTITLE4=Lamento boliviano
TTITLE5=Angeles Caidos
TTITLE6=Por que te vas
TTITLE7=Vine hasta aqui
TTITLE8=Eres Mi Religion
TTITLE9=Angel de Amor
TTITLE10=El Problema
TTITLE11=Minutos
TTITLE12=EL ARBOL DE LA PLAZA
TTITLE13=los caminos de la vida
TTITLE14=Si tu supieras
TTITLE15=El Chavo del 8   remix
TTITLE16=la marcha de homero
TTITLE17=Vuelve
EXTD=
EXTT0=
EXTT1=
EXTT2=
EXTT3=
EXTT4=
EXTT5=
EXTT6=
EXTT7=
EXTT8=
EXTT9=
EXTT10=
EXTT11=
EXTT12=
EXTT13=
EXTT14=
EXTT15=
EXTT16=
EXTT17=
PLAYORDER=
